<svg xmlns="http://www.w3.org/2000/svg" viewBox="0 0 500 500"><g id="freepik--background-complete--inject-110"><rect y="382.4" width="500" height="0.25" style="fill:#e0e0e0"></rect><rect x="419.02" y="390" width="26.57" height="0.25" style="fill:#e0e0e0"></rect><rect x="266.76" y="395" width="22.9" height="0.25" style="fill:#e0e0e0"></rect><rect x="197.09" y="394.26" width="45.38" height="0.25" style="fill:#e0e0e0"></rect><rect x="151.33" y="394.26" width="30.81" height="0.25" style="fill:#e0e0e0"></rect><rect x="80.34" y="392.56" width="48.66" height="0.25" style="fill:#e0e0e0"></rect><rect x="322.7" y="390" width="86.63" height="0.25" style="fill:#e0e0e0"></rect><rect x="51.65" y="392.56" width="7.09" height="0.25" style="fill:#e0e0e0"></rect><path d="M237,337.8H43.91a5.71,5.71,0,0,1-5.7-5.71V60.66A5.71,5.71,0,0,1,43.91,55H237a5.71,5.71,0,0,1,5.71,5.71V332.09A5.71,5.71,0,0,1,237,337.8ZM43.91,55.2a5.46,5.46,0,0,0-5.45,5.46V332.09a5.46,5.46,0,0,0,5.45,5.46H237a5.47,5.47,0,0,0,5.46-5.46V60.66A5.47,5.47,0,0,0,237,55.2Z" style="fill:#e0e0e0"></path><path d="M453.31,337.8H260.21a5.72,5.72,0,0,1-5.71-5.71V60.66A5.72,5.72,0,0,1,260.21,55h193.1A5.71,5.71,0,0,1,459,60.66V332.09A5.71,5.71,0,0,1,453.31,337.8ZM260.21,55.2a5.47,5.47,0,0,0-5.46,5.46V332.09a5.47,5.47,0,0,0,5.46,5.46h193.1a5.47,5.47,0,0,0,5.46-5.46V60.66a5.47,5.47,0,0,0-5.46-5.46Z" style="fill:#e0e0e0"></path><rect x="62.66" y="268.94" width="21.24" height="115.28" transform="translate(146.55 653.15) rotate(180)" style="fill:#e0e0e0"></rect><polygon points="66.69 384.21 62.66 384.21 62.66 372.74 70.92 372.74 66.69 384.21" style="fill:#ebebeb"></polygon><rect x="142.04" y="262.97" width="21.24" height="121.24" style="fill:#e0e0e0"></rect><rect x="62.66" y="262.97" width="82.9" height="114.2" transform="translate(208.22 640.14) rotate(180)" style="fill:#ebebeb"></rect><rect x="61.61" y="321.68" width="45.32" height="36.97" transform="translate(-255.9 424.44) rotate(-90)" style="fill:#e0e0e0"></rect><rect x="101.29" y="321.68" width="45.32" height="36.97" transform="translate(-216.22 464.11) rotate(-90)" style="fill:#e0e0e0"></rect><path d="M120.29,320.72h7.31a11.55,11.55,0,0,0,8.4-3.62H111.89A11.55,11.55,0,0,0,120.29,320.72Z" style="fill:#ebebeb"></path><path d="M80.24,320.72h7.31A11.55,11.55,0,0,0,96,317.1H71.84A11.57,11.57,0,0,0,80.24,320.72Z" style="fill:#ebebeb"></path><rect x="61.61" y="270.7" width="45.32" height="36.97" transform="translate(-204.91 373.45) rotate(-90)" style="fill:#e0e0e0"></rect><rect x="101.29" y="270.7" width="45.32" height="36.97" transform="translate(-165.24 413.13) rotate(-90)" style="fill:#e0e0e0"></rect><path d="M120.29,269.73h7.31a11.54,11.54,0,0,0,8.4-3.61H111.89A11.54,11.54,0,0,0,120.29,269.73Z" style="fill:#ebebeb"></path><path d="M80.24,269.73h7.31a11.54,11.54,0,0,0,8.4-3.61H71.84A11.56,11.56,0,0,0,80.24,269.73Z" style="fill:#ebebeb"></path><polygon points="141.52 384.21 145.56 384.21 145.56 372.74 137.29 372.74 141.52 384.21" style="fill:#ebebeb"></polygon><rect x="268.3" y="87.4" width="50.63" height="58.9" transform="translate(587.23 233.71) rotate(180)" style="fill:#e0e0e0"></rect><rect x="262.49" y="87.4" width="55.41" height="58.9" transform="translate(580.39 233.71) rotate(180)" style="fill:#f5f5f5"></rect><rect x="265.38" y="93.79" width="49.62" height="46.12" transform="translate(407.05 -173.34) rotate(90)" style="fill:#fafafa"></rect><rect x="277.41" y="104.97" width="25.56" height="23.76" transform="translate(407.05 -173.34) rotate(90)" style="fill:#f5f5f5"></rect><rect x="363.04" y="73.99" width="76.51" height="141.9" transform="translate(802.6 289.88) rotate(180)" style="fill:#e0e0e0"></rect><rect x="357.6" y="73.99" width="79.41" height="141.9" transform="translate(794.61 289.88) rotate(180)" style="fill:#ebebeb"></rect><rect x="363.04" y="215.89" width="76.51" height="10.11" transform="translate(802.6 441.88) rotate(180)" style="fill:#e0e0e0"></rect><rect x="348.54" y="215.89" width="79.41" height="10.11" transform="translate(776.48 441.88) rotate(180)" style="fill:#ebebeb"></rect><rect x="333.98" y="112.85" width="126.66" height="64.18" transform="translate(542.24 -252.37) rotate(90)" style="fill:#f5f5f5"></rect><polygon points="417.89 208.27 391.17 81.61 378.55 81.61 405.28 208.27 417.89 208.27" style="fill:#fafafa"></polygon><path d="M425.87,165.3a.55.55,0,0,1-.55-.55V86.56a.55.55,0,0,1,.55-.54.54.54,0,0,1,.54.54v78.19A.55.55,0,0,1,425.87,165.3Z" style="fill:#ebebeb"></path><polygon points="402.56 208.27 375.84 81.61 370.92 81.61 397.65 208.27 402.56 208.27" style="fill:#fafafa"></polygon><rect x="302.37" y="144.46" width="126.66" height="0.97" transform="translate(510.64 -220.76) rotate(90)" style="fill:#e0e0e0"></rect><polygon points="355.8 91.35 432.31 91.35 433.01 84.57 356.5 84.57 355.8 91.35" style="fill:#e0e0e0"></polygon><polygon points="355.8 96.32 432.31 96.32 433.01 89.53 356.5 89.53 355.8 96.32" style="fill:#e0e0e0"></polygon><polygon points="355.8 102.28 432.31 102.28 433.01 95.49 356.5 95.49 355.8 102.28" style="fill:#e0e0e0"></polygon><polygon points="355.8 108.91 432.31 108.91 433.01 102.13 356.5 102.13 355.8 108.91" style="fill:#e0e0e0"></polygon><polygon points="355.8 116.86 432.31 116.86 433.01 110.07 356.5 110.07 355.8 116.86" style="fill:#e0e0e0"></polygon><polygon points="355.8 125.79 432.31 125.79 433.01 119.01 356.5 119.01 355.8 125.79" style="fill:#e0e0e0"></polygon><path d="M394.22,247c0,3-2.11,5.14.92,5.14s10-2.11,10-5.14a5.48,5.48,0,0,0-11,0Z" style="fill:#e0e0e0"></path><path d="M384.83,249.63c0,3-2.1,5.13.92,5.13s10.05-2.11,10.05-5.13a5.49,5.49,0,0,0-11,0Z" style="fill:#e0e0e0"></path><path d="M375.85,248c0,3-2.11,5.13.92,5.13s10-2.11,10-5.13a5.48,5.48,0,0,0-11,0Z" style="fill:#e0e0e0"></path><path d="M408.54,248.73s-.45,10.69-17.63,10.69-17.63-10.69-17.63-10.69Z" style="fill:#ebebeb"></path><rect x="206.23" y="259.43" width="7.79" height="122.97" transform="translate(420.24 641.82) rotate(180)" style="fill:#e0e0e0"></rect><rect x="203.77" y="259.43" width="5.41" height="122.97" transform="translate(412.94 641.82) rotate(180)" style="fill:#f0f0f0"></rect><rect x="202.09" y="259.43" width="161.75" height="9.57" style="fill:#f0f0f0"></rect><rect x="367.32" y="269" width="7.79" height="113.4" transform="translate(742.44 651.4) rotate(180)" style="fill:#e0e0e0"></rect><rect x="364.87" y="269" width="5.41" height="113.4" transform="translate(735.14 651.4) rotate(180)" style="fill:#f0f0f0"></rect><rect x="416.63" y="269" width="7.79" height="113.4" transform="translate(841.05 651.4) rotate(180)" style="fill:#e0e0e0"></rect><rect x="414.17" y="269" width="5.41" height="113.4" transform="translate(833.75 651.4) rotate(180)" style="fill:#f0f0f0"></rect><rect x="255.53" y="269" width="7.79" height="113.4" transform="translate(518.85 651.4) rotate(180)" style="fill:#e0e0e0"></rect><rect x="253.07" y="269" width="5.41" height="113.4" transform="translate(511.55 651.4) rotate(180)" style="fill:#f0f0f0"></rect><rect x="363.84" y="259.43" width="60.58" height="9.57" transform="translate(788.25 528.43) rotate(180)" style="fill:#e0e0e0"></rect><polygon points="364.87 218.91 299.85 218.91 290.42 257.3 355.44 257.3 364.87 218.91" style="fill:#e0e0e0"></polygon><polygon points="355.44 257.3 355.18 259.43 290.16 259.43 290.42 257.3 355.44 257.3" style="fill:#e0e0e0"></polygon><polygon points="362.86 218.91 297.85 218.91 288.42 257.3 353.44 257.3 362.86 218.91" style="fill:#f0f0f0"></polygon><polygon points="352.07 255.55 360.63 220.66 299.22 220.66 290.66 255.55 352.07 255.55" style="fill:#fafafa"></polygon><polygon points="336.5 257.3 336.24 259.43 264.64 259.43 264.9 257.3 336.5 257.3" style="fill:#f0f0f0"></polygon><path d="M210.89,243.78a5.32,5.32,0,0,1,.56.06v-1.26A1.58,1.58,0,0,1,213,241h12.33a1.59,1.59,0,0,1,1.59,1.58v16.84h-15.5v-2.83a5.29,5.29,0,0,1-.56.05,4.66,4.66,0,0,1-4.66-4.66v-3.53A4.67,4.67,0,0,1,210.89,243.78Zm-2.66,8.2a2.66,2.66,0,0,0,2.66,2.66,2.6,2.6,0,0,0,.56-.06v-8.74a3.43,3.43,0,0,0-.56-.06,2.67,2.67,0,0,0-2.66,2.67Z" style="fill:#e0e0e0"></path><path d="M277.92,382.4h2.17l6.18-30.48,1.09-5.34,6.74-33.21H320l14,69h2.16l-14.28-70.3a1.05,1.05,0,0,0-1-.85H293.24a1,1,0,0,0-1,.85l-5.93,29.17-1.09,5.33Z" style="fill:#f0f0f0"></path><path d="M236.4,382.4h2.17l14-69h25.86l6.74,33.23,1.08,5.32,6.19,30.48h2.17l-7.27-35.82-1.08-5.31-5.93-29.17a1,1,0,0,0-1-.85h-27.6a1.05,1.05,0,0,0-1,.85Z" style="fill:#f0f0f0"></path><path d="M300.15,312.31H252.63A16.67,16.67,0,0,1,236,296l-1.77-72.23a12.13,12.13,0,0,1,12.13-12.38h29.79a12.14,12.14,0,0,1,12.07,10.76Z" style="fill:#f0f0f0"></path><path d="M274.24,303.2h46.51a6.51,6.51,0,0,1,6.51,6.51v.22a2.37,2.37,0,0,1-2.37,2.37H274.24a0,0,0,0,1,0,0V303.2A0,0,0,0,1,274.24,303.2Z" style="fill:#f0f0f0"></path><rect x="57.89" y="73.99" width="76.51" height="141.9" transform="translate(192.29 289.88) rotate(180)" style="fill:#e0e0e0"></rect><rect x="52.45" y="73.99" width="79.41" height="141.9" transform="translate(184.3 289.88) rotate(180)" style="fill:#ebebeb"></rect><rect x="57.89" y="215.89" width="76.51" height="10.11" transform="translate(192.29 441.88) rotate(180)" style="fill:#e0e0e0"></rect><rect x="43.38" y="215.89" width="79.41" height="10.11" transform="translate(166.17 441.88) rotate(180)" style="fill:#ebebeb"></rect><rect x="28.82" y="112.85" width="126.66" height="64.18" transform="translate(237.09 52.79) rotate(90)" style="fill:#f5f5f5"></rect><polygon points="112.74 208.27 86.01 81.61 73.39 81.61 100.12 208.27 112.74 208.27" style="fill:#fafafa"></polygon><path d="M120.71,165.3a.55.55,0,0,1-.54-.55V86.56a.54.54,0,0,1,.54-.54.55.55,0,0,1,.55.54v78.19A.55.55,0,0,1,120.71,165.3Z" style="fill:#ebebeb"></path><polygon points="97.41 208.27 70.68 81.61 65.76 81.61 92.49 208.27 97.41 208.27" style="fill:#fafafa"></polygon><rect x="-2.78" y="144.46" width="126.66" height="0.97" transform="translate(205.49 84.39) rotate(90)" style="fill:#e0e0e0"></rect><polygon points="50.64 91.35 127.16 91.35 127.86 84.57 51.34 84.57 50.64 91.35" style="fill:#e0e0e0"></polygon><polygon points="50.64 96.32 127.16 96.32 127.86 89.53 51.34 89.53 50.64 96.32" style="fill:#e0e0e0"></polygon><polygon points="50.64 102.28 127.16 102.28 127.86 95.49 51.34 95.49 50.64 102.28" style="fill:#e0e0e0"></polygon><polygon points="50.64 108.91 127.16 108.91 127.86 102.13 51.34 102.13 50.64 108.91" style="fill:#e0e0e0"></polygon><polygon points="50.64 116.86 127.16 116.86 127.86 110.07 51.34 110.07 50.64 116.86" style="fill:#e0e0e0"></polygon><polygon points="50.64 125.79 127.16 125.79 127.86 119.01 51.34 119.01 50.64 125.79" style="fill:#e0e0e0"></polygon><rect x="298.96" y="162.27" width="37.85" height="43.7" transform="translate(635.78 368.25) rotate(180)" style="fill:#e0e0e0"></rect><rect x="294.65" y="162.27" width="41.1" height="43.7" transform="translate(630.41 368.25) rotate(180)" style="fill:#f5f5f5"></rect><rect x="296.8" y="167.01" width="36.81" height="34.22" transform="translate(499.33 -131.08) rotate(90)" style="fill:#fafafa"></rect><path d="M324,184.79v-1.33a8.81,8.81,0,0,0-8.81-8.82h0a8.82,8.82,0,0,0-8.82,8.82v1.33a8.82,8.82,0,0,0,8.82,8.82h0A8.81,8.81,0,0,0,324,184.79Z" style="fill:#f5f5f5"></path><rect x="182.76" y="136.56" width="44.71" height="51.43" transform="translate(410.23 324.55) rotate(180)" style="fill:#e0e0e0"></rect><rect x="177.68" y="136.56" width="48.38" height="51.43" transform="translate(403.75 324.55) rotate(180)" style="fill:#f5f5f5"></rect><rect x="180.21" y="142.14" width="43.32" height="40.27" transform="translate(364.15 -39.6) rotate(90)" style="fill:#fafafa"></rect><polygon points="201.87 151.32 212.89 170.4 190.86 170.4 201.87 151.32" style="fill:#f5f5f5"></polygon></g><g id="freepik--Shadow--inject-110"><ellipse cx="250" cy="416.24" rx="193.89" ry="11.32" style="fill:#f5f5f5"></ellipse></g><g id="freepik--Cloud--inject-110"><path d="M315.8,105.26c.86,0,1.71,0,2.56.11a36.41,36.41,0,0,1,67.85,9.47,27.59,27.59,0,1,1,8.7,53.77H315.8a31.68,31.68,0,1,1,0-63.35Z" style="fill:#FFC100"></path><path d="M315.8,105.26c.86,0,1.71,0,2.56.11a36.41,36.41,0,0,1,67.85,9.47,27.59,27.59,0,1,1,8.7,53.77H315.8a31.68,31.68,0,1,1,0-63.35Z" style="opacity:0.30000000000000004"></path><path d="M321,131.83l5.8-10.06a1.79,1.79,0,0,1,3.1,0l5.81,10.06a1.79,1.79,0,0,1-1.55,2.68h-2.64a19.88,19.88,0,0,0,17,17.07,3,3,0,0,1,2.63,3h0a3,3,0,0,1-3.42,2.94,25.84,25.84,0,0,1-22.25-23h-3A1.79,1.79,0,0,1,321,131.83Z" style="fill:#fafafa"></path><path d="M351.2,109.28h0a3,3,0,0,1,3.42-3,25.86,25.86,0,0,1,22.25,23h3a1.79,1.79,0,0,1,1.55,2.69l-5.81,10a1.79,1.79,0,0,1-3.1,0l-5.8-10a1.79,1.79,0,0,1,1.55-2.69h2.63a19.88,19.88,0,0,0-17-17.07A3,3,0,0,1,351.2,109.28Z" style="fill:#fafafa"></path></g><g id="freepik--Character--inject-110"><polygon points="251.99 408.6 258.81 406.71 255.11 390.71 248.28 392.61 251.99 408.6" style="fill:#ff8b7b"></polygon><polygon points="170.43 408.38 177.43 409.48 180.52 393.51 173.44 393.51 170.43 408.38" style="fill:#ff8b7b"></polygon><path d="M178.05,408.75l-7.86-1.24a.61.61,0,0,0-.67.38l-2.36,6a1,1,0,0,0,.82,1.41c2.75.38,4.11.43,7.57,1,2.13.34,4.16.86,13.55.86,2.91,0,3.36-2.93,2.15-3.2-5.46-1.19-10.65-2.76-12.13-4.58A1.74,1.74,0,0,0,178.05,408.75Z" style="fill:#263238"></path><path d="M258.55,405.93,251.09,408a.63.63,0,0,0-.45.63l.34,6.44a1,1,0,0,0,1.31.94c2.68-.79,6.52-2,9.9-3,3.95-1.09,7.42-1.82,12.06-3.11,2.8-.78,2.79-3.82,1.55-3.76-5.67.32-10.06,1.4-15.46-.17A3.31,3.31,0,0,0,258.55,405.93Z" style="fill:#263238"></path><polygon points="255.11 390.72 257.02 398.96 250.19 400.85 248.28 392.61 255.11 390.72" style="fill:#ea7063"></polygon><polygon points="173.44 393.51 180.52 393.51 178.88 401.97 171.72 401.97 173.44 393.51" style="fill:#ea7063"></polygon><path d="M230.48,168.55s8.36,21.39.42,61.22H193c-.26-5.82,3.4-34.18-2.21-61.58a97.19,97.19,0,0,1,12.68-1.6,137.16,137.16,0,0,1,16.1,0A71.1,71.1,0,0,1,230.48,168.55Z" style="fill:#FFC100"></path><path d="M230.48,168.55s8.36,21.39.42,61.22H193c-.26-5.82,3.4-34.18-2.21-61.58a97.19,97.19,0,0,1,12.68-1.6,137.16,137.16,0,0,1,16.1,0A71.1,71.1,0,0,1,230.48,168.55Z" style="opacity:0.1"></path><path d="M250.33,206.25a10.87,10.87,0,0,0-.58-1.64l-.34-.83-.67-1.66-1.35-3.34L244.67,192c-1.82-4.5-3.7-9-5.65-13.42l-10.33,4.32c1.82,4.56,3.76,9,5.82,13.5,1,2.23,2.07,4.44,3.15,6.66.54,1.11,1.08,2.22,1.65,3.32l.79,1.55-.22.08a30,30,0,0,1-6.16,1.45c-4.51.66-9.35,1-14.07,1.25l-.49,5.53a77.91,77.91,0,0,0,15.17,1.56,34.62,34.62,0,0,0,8.26-.88,16.86,16.86,0,0,0,2.37-.79,11.31,11.31,0,0,0,2.7-1.6,8.05,8.05,0,0,0,2.57-3.66A8.17,8.17,0,0,0,250.33,206.25Z" style="fill:#ff8b7b"></path><path d="M222.07,173.4c-2.38,6.34,9.71,25,9.71,25l14.16-7.69a86.65,86.65,0,0,0-8.18-16.58C232.75,166.66,224.69,166.44,222.07,173.4Z" style="fill:#FFC100"></path><path d="M222.07,173.4c-2.38,6.34,9.71,25,9.71,25l14.16-7.69a86.65,86.65,0,0,0-8.18-16.58C232.75,166.66,224.69,166.44,222.07,173.4Z" style="opacity:0.1"></path><polygon points="208.05 206.84 207.39 214.29 214.12 215.18 215.25 207.01 208.05 206.84" style="fill:#ff8b7b"></polygon><path d="M220.59,211.14,215.25,207l-1.13,8.17s4.79,3.46,8.09.23Z" style="fill:#ff8b7b"></path><path d="M205.08,148.45c1,5.19,2,14.68-1.59,18.14,0,0,2.08,5.25,11.71,5.25,8.8,0,4.39-5.25,4.39-5.25-5.78-1.38-5.35-8.7-4-14.06Z" style="fill:#ff8b7b"></path><path d="M206,155.68h0l3.47-2.52c.19.53,3.15,2.52,2.7,3.58-1.51,3.58-4.31,4.85-6.34,4.22A28.68,28.68,0,0,0,206,155.68Z" style="fill:#ea7063"></path><path d="M204.62,137.58l-5.94-4c-2.8,2.39-3.29,8.82.27,12.86C206.07,145.11,204.62,137.58,204.62,137.58Z" style="fill:#263238"></path><path d="M217.38,140c0,7.43.44,11.78-3,15.83-5.24,6.09-14.6,3.31-16.86-4-2-6.55-1.76-17.6,5.29-21A10.14,10.14,0,0,1,217.38,140Z" style="fill:#ff8b7b"></path><path d="M218.8,135.35l-7.09-1.14c-1.53,3.34.75,9.38,5.68,11.54C223.3,141.56,218.8,135.35,218.8,135.35Z" style="fill:#263238"></path><path d="M203.69,136.07c-3.05.33-13.43.05-8.19-10.48,0,1.27,1.19,4.73,4.16,1,2.5-3.15,8.06,1.09,7.5-2,0,0,2,1,1,2.24s6.57-2.59,10.84-.12c-2.17.22-2.41,3.22.75,5.24,3,1.92.83,6.86-3,5.93S211.29,135.24,203.69,136.07Z" style="fill:#263238"></path><path d="M220.79,145.83a6.28,6.28,0,0,1-2.72,3.87c-1.82,1.16-3.31-.33-3.28-2.39,0-1.85,1-4.68,3.06-5S221.23,143.87,220.79,145.83Z" style="fill:#ff8b7b"></path><path d="M230.9,229.77s14.14,56.33,17,77.75c3,22.27,10.17,88.3,10.17,88.3L247,399.37s-15.81-64.86-20.06-86.51C222.27,289.25,206,229.77,206,229.77Z" style="fill:#FFC100"></path><path d="M230.9,229.77s14.14,56.33,17,77.75c3,22.27,10.17,88.3,10.17,88.3L247,399.37s-15.81-64.86-20.06-86.51C222.27,289.25,206,229.77,206,229.77Z" style="fill:#fafafa;opacity:0.6000000000000001"></path><polygon points="246.44 400.15 258.86 396.26 258.69 391.65 245.13 396.07 246.44 400.15" style="fill:#FFC100"></polygon><polygon points="246.44 400.15 258.86 396.26 258.69 391.65 245.13 396.07 246.44 400.15" style="opacity:0.2"></polygon><path d="M213.9,233.93l-3.3,12.9c3.06,11.52,7.16,27.14,10.62,41.19A179.68,179.68,0,0,0,213.9,233.93Z" style="fill:#FFC100"></path><path d="M213.9,233.93l-3.3,12.9c3.06,11.52,7.16,27.14,10.62,41.19A179.68,179.68,0,0,0,213.9,233.93Z" style="fill:#fafafa;opacity:0.4"></path><path d="M217.47,229.77s-3.22,57.89-7.63,78.16C205,330.14,182,400.33,182,400.33H169s16.83-68.4,19.58-90.38c3-23.86,4.43-80.18,4.43-80.18Z" style="fill:#FFC100"></path><path d="M217.47,229.77s-3.22,57.89-7.63,78.16C205,330.14,182,400.33,182,400.33H169s16.83-68.4,19.58-90.38c3-23.86,4.43-80.18,4.43-80.18Z" style="fill:#fafafa;opacity:0.6000000000000001"></path><polygon points="168.06 400.53 182.93 400.53 184.29 396.54 168.06 396.54 168.06 400.53" style="fill:#FFC100"></polygon><polygon points="168.06 400.53 182.93 400.53 184.29 396.54 168.06 396.54 168.06 400.53" style="opacity:0.2"></polygon><path d="M174.24,392.67h0a.12.12,0,0,1-.1-.14c.11-.66,15.76-62,18.23-81.79,2.69-21.43,3.53-72.73,3.59-73.2a.13.13,0,0,1,.13-.11.12.12,0,0,1,.11.14c-.06.47-.9,51.77-3.59,73.2-2.47,19.75-18.12,81.14-18.23,81.8A.12.12,0,0,1,174.24,392.67Z" style="fill:#FFC100"></path><path d="M174.24,392.67h0a.12.12,0,0,1-.1-.14c.11-.66,15.76-62,18.23-81.79,2.69-21.43,3.53-72.73,3.59-73.2a.13.13,0,0,1,.13-.11.12.12,0,0,1,.11.14c-.06.47-.9,51.77-3.59,73.2-2.47,19.75-18.12,81.14-18.23,81.8A.12.12,0,0,1,174.24,392.67Z" style="fill:#fafafa;opacity:0.4"></path><path d="M206.29,142.86c0,.6-.25,1.11-.64,1.14s-.75-.44-.79-1.05.25-1.11.64-1.13S206.25,142.26,206.29,142.86Z" style="fill:#263238"></path><path d="M199.48,143.31c0,.61-.25,1.12-.64,1.14s-.75-.44-.79-1,.25-1.11.64-1.14S199.44,142.71,199.48,143.31Z" style="fill:#263238"></path><path d="M201.66,143.47a21.83,21.83,0,0,1-2.53,5.35,3.47,3.47,0,0,0,2.91.34Z" style="fill:#ff5652"></path><path d="M203.91,150.71a.18.18,0,0,1-.19-.16.17.17,0,0,1,.17-.19,4.77,4.77,0,0,0,3.76-2.13.18.18,0,0,1,.24-.07.17.17,0,0,1,.07.24A5.06,5.06,0,0,1,203.91,150.71Z" style="fill:#263238"></path><path d="M208.19,140.53a.39.39,0,0,1-.29-.13,2.84,2.84,0,0,0-2.34-1,.34.34,0,0,1-.4-.3.36.36,0,0,1,.3-.4,3.53,3.53,0,0,1,3,1.27.35.35,0,0,1,0,.5A.4.4,0,0,1,208.19,140.53Z" style="fill:#263238"></path><path d="M196.26,141.1a.41.41,0,0,1-.16,0,.36.36,0,0,1-.16-.48,3.53,3.53,0,0,1,2.54-2,.35.35,0,1,1,.09.7h0a2.85,2.85,0,0,0-2,1.61A.34.34,0,0,1,196.26,141.1Z" style="fill:#263238"></path><path d="M194.56,179.88c-1.92,5.33-3.9,10.68-5.89,16s-4,10.67-5.77,15.79c-1.56,4.92-2.7,10.53-3.84,16s-2.28,11.14-3.47,16.7l-5.53-.54c0-5.8.16-11.55.6-17.34.24-2.88.48-5.78.87-8.7a78.66,78.66,0,0,1,1.59-8.94c.74-2.95,1.56-5.72,2.42-8.49s1.74-5.51,2.66-8.24c1.84-5.46,3.78-10.84,5.87-16.21Z" style="fill:#ff8b7b"></path><path d="M190.81,168.19c-6.7,1-14.38,24.19-14.38,24.19l14.08,8s6.19-11,9.25-19.24C203,172.49,198,167.14,190.81,168.19Z" style="fill:#FFC100"></path><path d="M190.81,168.19c-6.7,1-14.38,24.19-14.38,24.19l14.08,8s6.19-11,9.25-19.24C203,172.49,198,167.14,190.81,168.19Z" style="opacity:0.1"></path><path d="M180.17,410.34a2.13,2.13,0,0,0,1.4-.15,1,1,0,0,0,.49-.82.54.54,0,0,0-.21-.51c-.71-.52-3.19.51-3.47.63a.18.18,0,0,0-.1.15.18.18,0,0,0,.1.16A8.43,8.43,0,0,0,180.17,410.34Zm1.27-1.29a.51.51,0,0,1,.21.08s.08.08.07.21a.68.68,0,0,1-.32.57,3.4,3.4,0,0,1-2.5-.27A6.9,6.9,0,0,1,181.44,409.05Z" style="fill:#FFC100"></path><path d="M178.42,409.81h.08c.79-.28,2.43-1.59,2.4-2.39a.54.54,0,0,0-.46-.52.9.9,0,0,0-.73.1c-.92.54-1.41,2.53-1.43,2.61a.21.21,0,0,0,.05.17Zm1.86-2.61h.07c.21.06.22.17.22.21,0,.47-1.06,1.49-1.87,1.92a4.08,4.08,0,0,1,1.18-2.06A.53.53,0,0,1,180.28,407.2Z" style="fill:#FFC100"></path><path d="M261.72,406.33a2.68,2.68,0,0,0,1.54-.87.94.94,0,0,0,.08-.88.53.53,0,0,0-.38-.35c-1-.24-3.32,1.92-3.58,2.16a.16.16,0,0,0,0,.19.16.16,0,0,0,.16.11A12.57,12.57,0,0,0,261.72,406.33Zm.84-1.75a.61.61,0,0,1,.32,0,.22.22,0,0,1,.15.15.63.63,0,0,1,0,.57c-.32.49-1.43.87-3,1A9.21,9.21,0,0,1,262.56,404.58Z" style="fill:#FFC100"></path><path d="M259.53,406.68l.07,0c.72-.6,1.94-2.53,1.6-3.27-.08-.17-.27-.36-.72-.28a1.18,1.18,0,0,0-.82.52,4.8,4.8,0,0,0-.34,2.93.24.24,0,0,0,.11.13Zm.9-3.23.1,0c.3-.05.35.06.37.09.2.45-.59,1.91-1.29,2.65a3.93,3.93,0,0,1,.32-2.35A.91.91,0,0,1,260.43,403.45Z" style="fill:#FFC100"></path><path d="M175.82,243.57,174.46,249l-6.06-3.67s.88-5.84,5.5-5.94Z" style="fill:#ff8b7b"></path><polygon points="169.78 251.6 165.28 248.97 168.4 245.37 174.46 249.03 169.78 251.6" style="fill:#ff8b7b"></polygon></g><g id="freepik--Line--inject-110"><path d="M269.75,218.29a1.5,1.5,0,0,1-1.5-1.5v-6a1.5,1.5,0,0,1,3,0v6A1.5,1.5,0,0,1,269.75,218.29Z" style="fill:#FFC100"></path><path d="M269.75,198.36a1.5,1.5,0,0,1-1.5-1.5V184.92a1.5,1.5,0,1,1,3,0v11.94A1.5,1.5,0,0,1,269.75,198.36Zm0-25.88a1.5,1.5,0,0,1-1.5-1.5V159a1.5,1.5,0,1,1,3,0V171A1.5,1.5,0,0,1,269.75,172.48Zm-121.4-3.09a1.5,1.5,0,0,1-1.5-1.5V155.94a1.5,1.5,0,0,1,3,0v11.95A1.5,1.5,0,0,1,148.35,169.39Zm121.4-22.79a1.5,1.5,0,0,1-1.5-1.5V133.16a1.5,1.5,0,1,1,3,0V145.1A1.5,1.5,0,0,1,269.75,146.6Zm-121.4-3.09a1.5,1.5,0,0,1-1.5-1.5V130.06a1.5,1.5,0,0,1,3,0V142A1.5,1.5,0,0,1,148.35,143.51ZM268.9,120.77a1.49,1.49,0,0,1-1.47-1.25,59.71,59.71,0,0,0-3.06-11.22,1.5,1.5,0,0,1,2.8-1.07A61.76,61.76,0,0,1,270.38,119a1.5,1.5,0,0,1-1.22,1.73Zm-119.1-3a1.86,1.86,0,0,1-.33,0,1.5,1.5,0,0,1-1.14-1.79,61.66,61.66,0,0,1,3.82-11.61,1.48,1.48,0,0,1,2-.76,1.5,1.5,0,0,1,.77,2,58.73,58.73,0,0,0-3.63,11A1.51,1.51,0,0,1,149.8,117.74Zm109.54-20.8a1.49,1.49,0,0,1-1.24-.66,58.36,58.36,0,0,0-7.44-8.94,1.5,1.5,0,0,1,2.11-2.14,62.66,62.66,0,0,1,7.81,9.4,1.49,1.49,0,0,1-.4,2.08A1.44,1.44,0,0,1,259.34,96.94Zm-98.78-2.51a1.5,1.5,0,0,1-1.2-2.4,62.41,62.41,0,0,1,8.28-9,1.5,1.5,0,1,1,2,2.23,59.67,59.67,0,0,0-7.88,8.56A1.51,1.51,0,0,1,160.56,94.43Zm80.22-15.24A1.46,1.46,0,0,1,240,79a58.77,58.77,0,0,0-10.46-5.09,1.5,1.5,0,1,1,1-2.81,62,62,0,0,1,11,5.34,1.5,1.5,0,0,1-.79,2.78ZM180,77.64a1.5,1.5,0,0,1-.72-2.82,62.19,62.19,0,0,1,11.25-4.77,1.5,1.5,0,0,1,.89,2.86,59.28,59.28,0,0,0-10.7,4.54A1.46,1.46,0,0,1,180,77.64Zm36.55-6.94h-.18a60.25,60.25,0,0,0-11.63-.29,1.5,1.5,0,0,1-.22-3,63.81,63.81,0,0,1,12.21.3,1.5,1.5,0,0,1-.18,3Z" style="fill:#FFC100"></path><path d="M148.35,189.44a1.5,1.5,0,0,1-1.5-1.5v-6a1.5,1.5,0,0,1,3,0v6A1.5,1.5,0,0,1,148.35,189.44Z" style="fill:#FFC100"></path><g style="opacity:0.6000000000000001"><path d="M269.75,218.29a1.5,1.5,0,0,1-1.5-1.5v-6a1.5,1.5,0,0,1,3,0v6A1.5,1.5,0,0,1,269.75,218.29Z" style="fill:#fafafa"></path><path d="M269.75,198.36a1.5,1.5,0,0,1-1.5-1.5V184.92a1.5,1.5,0,1,1,3,0v11.94A1.5,1.5,0,0,1,269.75,198.36Zm0-25.88a1.5,1.5,0,0,1-1.5-1.5V159a1.5,1.5,0,1,1,3,0V171A1.5,1.5,0,0,1,269.75,172.48Zm-121.4-3.09a1.5,1.5,0,0,1-1.5-1.5V155.94a1.5,1.5,0,0,1,3,0v11.95A1.5,1.5,0,0,1,148.35,169.39Zm121.4-22.79a1.5,1.5,0,0,1-1.5-1.5V133.16a1.5,1.5,0,1,1,3,0V145.1A1.5,1.5,0,0,1,269.75,146.6Zm-121.4-3.09a1.5,1.5,0,0,1-1.5-1.5V130.06a1.5,1.5,0,0,1,3,0V142A1.5,1.5,0,0,1,148.35,143.51ZM268.9,120.77a1.49,1.49,0,0,1-1.47-1.25,59.71,59.71,0,0,0-3.06-11.22,1.5,1.5,0,0,1,2.8-1.07A61.76,61.76,0,0,1,270.38,119a1.5,1.5,0,0,1-1.22,1.73Zm-119.1-3a1.86,1.86,0,0,1-.33,0,1.5,1.5,0,0,1-1.14-1.79,61.66,61.66,0,0,1,3.82-11.61,1.48,1.48,0,0,1,2-.76,1.5,1.5,0,0,1,.77,2,58.73,58.73,0,0,0-3.63,11A1.51,1.51,0,0,1,149.8,117.74Zm109.54-20.8a1.49,1.49,0,0,1-1.24-.66,58.36,58.36,0,0,0-7.44-8.94,1.5,1.5,0,0,1,2.11-2.14,62.66,62.66,0,0,1,7.81,9.4,1.49,1.49,0,0,1-.4,2.08A1.44,1.44,0,0,1,259.34,96.94Zm-98.78-2.51a1.5,1.5,0,0,1-1.2-2.4,62.41,62.41,0,0,1,8.28-9,1.5,1.5,0,1,1,2,2.23,59.67,59.67,0,0,0-7.88,8.56A1.51,1.51,0,0,1,160.56,94.43Zm80.22-15.24A1.46,1.46,0,0,1,240,79a58.77,58.77,0,0,0-10.46-5.09,1.5,1.5,0,1,1,1-2.81,62,62,0,0,1,11,5.34,1.5,1.5,0,0,1-.79,2.78ZM180,77.64a1.5,1.5,0,0,1-.72-2.82,62.19,62.19,0,0,1,11.25-4.77,1.5,1.5,0,0,1,.89,2.86,59.28,59.28,0,0,0-10.7,4.54A1.46,1.46,0,0,1,180,77.64Zm36.55-6.94h-.18a60.25,60.25,0,0,0-11.63-.29,1.5,1.5,0,0,1-.22-3,63.81,63.81,0,0,1,12.21.3,1.5,1.5,0,0,1-.18,3Z" style="fill:#fafafa"></path><path d="M148.35,189.44a1.5,1.5,0,0,1-1.5-1.5v-6a1.5,1.5,0,0,1,3,0v6A1.5,1.5,0,0,1,148.35,189.44Z" style="fill:#fafafa"></path></g><path d="M311.53,309.15a43.34,43.34,0,0,1-43.28-43.28V228a1.5,1.5,0,0,1,3,0v37.87a40.28,40.28,0,0,0,80.56,0V161.52a1.5,1.5,0,0,1,3,0V265.87A43.34,43.34,0,0,1,311.53,309.15Z" style="fill:#FFC100"></path><path d="M311.53,309.15a43.34,43.34,0,0,1-43.28-43.28V228a1.5,1.5,0,0,1,3,0v37.87a40.28,40.28,0,0,0,80.56,0V161.52a1.5,1.5,0,0,1,3,0V265.87A43.34,43.34,0,0,1,311.53,309.15Z" style="opacity:0.30000000000000004"></path></g><g id="freepik--Device--inject-110"><path d="M119.48,418h73.84a10.19,10.19,0,0,0,10.26-11L189,199a12.07,12.07,0,0,0-11.81-11H103.39a10.18,10.18,0,0,0-10.26,11l14.54,208A12.07,12.07,0,0,0,119.48,418Z" style="fill:#FFC100"></path><path d="M119.48,418h73.84a10.19,10.19,0,0,0,10.26-11L189,199a12.07,12.07,0,0,0-11.81-11H103.39a10.18,10.18,0,0,0-10.26,11l14.54,208A12.07,12.07,0,0,0,119.48,418Z" style="fill:#fafafa;opacity:0.30000000000000004"></path><path d="M127.44,418h73.85a10.19,10.19,0,0,0,10.26-11L197,199a12.05,12.05,0,0,0-11.8-11H111.36a10.18,10.18,0,0,0-10.26,11l14.54,208A12.06,12.06,0,0,0,127.44,418Z" style="fill:#FFC100"></path><path d="M127.44,418h73.85a10.19,10.19,0,0,0,10.26-11L197,199a12.05,12.05,0,0,0-11.8-11H111.36a10.18,10.18,0,0,0-10.26,11l14.54,208A12.06,12.06,0,0,0,127.44,418Z" style="fill:#fafafa;opacity:0.6000000000000001"></path><path d="M118.33,406.05H208.6a1.4,1.4,0,0,0,1.4-1.5L195.83,201.93a1.4,1.4,0,0,0-1.4-1.31H104.16a1.41,1.41,0,0,0-1.4,1.51l14.17,202.61A1.4,1.4,0,0,0,118.33,406.05Z" style="fill:#fafafa"></path><path d="M112.23,291.73l6.61-16.49c.79-1.95,3.61-1.95,5.09,0l12.43,16.49c1.47,2,.49,4.41-1.77,4.41h-4.32c4.47,14.52,18,26.06,32.85,28A6.17,6.17,0,0,1,168.3,329h0a4,4,0,0,1-4.76,4.83c-19.75-2.56-37.74-18.19-43.14-37.67h-4.85C113.29,296.14,111.44,293.69,112.23,291.73Z" style="fill:#FFC100"></path><path d="M155.21,254.75h0a4,4,0,0,1,4.75-4.83c19.75,2.56,37.74,18.19,43.14,37.67H208c2.26,0,4.11,2.45,3.32,4.4l-6.61,16.49c-.78,2-3.61,2-5.09,0L187.14,292c-1.47-1.95-.49-4.4,1.77-4.4h4.33c-4.48-14.52-18-26.06-32.86-28A6.17,6.17,0,0,1,155.21,254.75Z" style="fill:#FFC100"></path><g style="opacity:0.30000000000000004"><path d="M112.23,291.73l6.61-16.49c.79-1.95,3.61-1.95,5.09,0l12.43,16.49c1.47,2,.49,4.41-1.77,4.41h-4.32c4.47,14.52,18,26.06,32.85,28A6.17,6.17,0,0,1,168.3,329h0a4,4,0,0,1-4.76,4.83c-19.75-2.56-37.74-18.19-43.14-37.67h-4.85C113.29,296.14,111.44,293.69,112.23,291.73Z"></path><path d="M155.21,254.75h0a4,4,0,0,1,4.75-4.83c19.75,2.56,37.74,18.19,43.14,37.67H208c2.26,0,4.11,2.45,3.32,4.4l-6.61,16.49c-.78,2-3.61,2-5.09,0L187.14,292c-1.47-1.95-.49-4.4,1.77-4.4h4.33c-4.48-14.52-18-26.06-32.86-28A6.17,6.17,0,0,1,155.21,254.75Z"></path></g><path d="M133.09,193.78a1.88,1.88,0,0,0,1.85,1.74,1.6,1.6,0,0,0,1.62-1.74A1.9,1.9,0,0,0,134.7,192,1.59,1.59,0,0,0,133.09,193.78Z" style="fill:#FFC100"></path><path d="M133.09,193.78a1.88,1.88,0,0,0,1.85,1.74,1.6,1.6,0,0,0,1.62-1.74A1.9,1.9,0,0,0,134.7,192,1.59,1.59,0,0,0,133.09,193.78Z" style="fill:#fafafa;opacity:0.4"></path><path d="M142,195.52h19.22a1.61,1.61,0,0,0,1.61-1.74h0A1.89,1.89,0,0,0,161,192H141.8a1.61,1.61,0,0,0-1.62,1.74h0A1.91,1.91,0,0,0,142,195.52Z" style="fill:#FFC100"></path><path d="M142,195.52h19.22a1.61,1.61,0,0,0,1.61-1.74h0A1.89,1.89,0,0,0,161,192H141.8a1.61,1.61,0,0,0-1.62,1.74h0A1.91,1.91,0,0,0,142,195.52Z" style="fill:#fafafa;opacity:0.4"></path></g></svg>